<svg xmlns="http://www.w3.org/2000/svg" version="1.1" xmlns:xlink="http://www.w3.org/1999/xlink" width="16px" height="16px"><svg xmlns="http://www.w3.org/2000/svg" version="1.1" xmlns:xlink="http://www.w3.org/1999/xlink" width="16px" height="16px"><svg width="16px" height="16px" viewBox="0 0 16 16" version="1.1" xmlns="http://www.w3.org/2000/svg" xmlns:xlink="http://www.w3.org/1999/xlink">
    <title>favicon</title>
    <g id="favicon" stroke="none" stroke-width="1" fill="none" fill-rule="evenodd">
        <rect id="Rectangle-Copy-5" fill="#1F2223" x="0" y="0" width="16" height="16" rx="2"></rect>
        <g id="S" transform="translate(4.365077, 1.916000)" fill="#EFECE6" fill-rule="nonzero">
            <path d="M1.75092308,2.242 C1.75092308,2.736 1.87758974,3.1635 2.13092308,3.5245 C2.38425641,3.8855 2.71042308,4.21166667 3.10942308,4.503 C3.50842308,4.79433333 3.92958974,5.07933333 4.37292308,5.358 C4.85425641,5.64933333 5.31342308,5.95966667 5.75042308,6.289 C6.18742308,6.61833333 6.54842308,6.99516667 6.83342308,7.4195 C7.11842308,7.84383333 7.26092308,8.36 7.26092308,8.968 C7.26092308,9.62666667 7.08992308,10.2061667 6.74792308,10.7065 C6.40592308,11.2068333 5.93408974,11.5995 5.33242308,11.8845 C4.73075641,12.1695 4.02458974,12.312 3.21392308,12.312 C2.87192308,12.312 2.51408974,12.2803333 2.14042308,12.217 C1.76675641,12.1536667 1.41842308,12.065 1.09542308,11.951 C0.772423077,11.837 0.509589744,11.7166667 0.306923077,11.59 C0.25625641,11.552 0.215089744,11.5076667 0.183423077,11.457 C0.15175641,11.4063333 0.129589744,11.3303333 0.116923077,11.229 L0.00292307692,8.36 C-0.00974358974,8.29666667 0.0187564103,8.26183333 0.0884230769,8.2555 C0.158089744,8.24916667 0.19925641,8.27133333 0.211923077,8.322 C0.363923077,8.702 0.544423077,9.10416667 0.753423077,9.5285 C0.962423077,9.95283333 1.20625641,10.3423333 1.48492308,10.697 C1.76358974,11.0516667 2.08342308,11.3398333 2.44442308,11.5615 C2.80542308,11.7831667 3.22025641,11.894 3.68892308,11.894 C4.01825641,11.894 4.32858974,11.837 4.61992308,11.723 C4.91125641,11.609 5.15192308,11.4095 5.34192308,11.1245 C5.53192308,10.8395 5.62692308,10.45 5.62692308,9.956 C5.62692308,9.36066667 5.49075641,8.85083333 5.21842308,8.4265 C4.94608974,8.00216667 4.60092308,7.63166667 4.18292308,7.315 C3.76492308,6.99833333 3.32792308,6.70066667 2.87192308,6.422 C2.42858974,6.13066667 2.00425641,5.833 1.59892308,5.529 C1.19358974,5.225 0.861089744,4.8735 0.601423077,4.4745 C0.34175641,4.0755 0.211923077,3.591 0.211923077,3.021 C0.211923077,2.32433333 0.401923077,1.75433333 0.781923077,1.311 C1.16192308,0.867666667 1.64642308,0.538333333 2.23542308,0.323 C2.82442308,0.107666667 3.42925641,0 4.04992308,0 C4.46792308,0 4.89225641,0.038 5.32292308,0.114 C5.75358974,0.19 6.12092308,0.297666667 6.42492308,0.437 C6.53892308,0.475 6.61492308,0.525666667 6.65292308,0.589 C6.69092308,0.652333333 6.70992308,0.722 6.70992308,0.798 L6.74792308,3.363 C6.74792308,3.41366667 6.71942308,3.44533333 6.66242308,3.458 C6.60542308,3.47066667 6.56425641,3.458 6.53892308,3.42 C6.47558974,3.23 6.38058974,2.96716667 6.25392308,2.6315 C6.12725641,2.29583333 5.94992308,1.957 5.72192308,1.615 C5.49392308,1.273 5.20892308,0.981666667 4.86692308,0.741 C4.52492308,0.500333333 4.10692308,0.38 3.61292308,0.38 C3.23292308,0.38 2.90358974,0.456 2.62492308,0.608 C2.34625641,0.76 2.13092308,0.972166667 1.97892308,1.2445 C1.82692308,1.51683333 1.75092308,1.84933333 1.75092308,2.242 Z" id="Path"></path>
        </g>
    </g>
</svg></svg><style>@media (prefers-color-scheme: light) { :root { filter: none; } }
@media (prefers-color-scheme: dark) { :root { filter: none; } }
</style></svg>